<svg width="803" height="733" viewBox="0 0 803 733" fill="none" xmlns="http://www.w3.org/2000/svg">
<g clip-path="url(#clip0_841_2)">
<path d="M605.357 645.419L604.179 643.41L638.905 623.055C641.013 621.82 643.414 621.174 645.858 621.185C648.301 621.197 650.696 621.864 652.793 623.118L681.491 640.263L680.298 642.263L651.598 625.115C649.859 624.076 647.873 623.523 645.847 623.514C643.822 623.505 641.831 624.041 640.083 625.065L605.357 645.419ZM708.687 639.795L707.507 637.79L797.593 584.558C798.012 584.312 798.36 583.96 798.602 583.538C798.843 583.116 798.97 582.638 798.97 582.151C798.974 581.665 798.851 581.185 798.612 580.761C798.373 580.337 798.027 579.983 797.609 579.735L767.7 561.369L768.917 559.389L798.816 577.749C799.579 578.204 800.209 578.85 800.644 579.624C801.079 580.398 801.304 581.273 801.295 582.161C801.296 583.051 801.063 583.926 800.621 584.698C800.178 585.471 799.541 586.113 798.772 586.562L708.687 639.795ZM610.581 566.47L609.424 564.453L697.218 513.9C697.661 513.648 698.03 513.282 698.285 512.84C698.54 512.398 698.672 511.896 698.669 511.386C698.671 510.876 698.537 510.374 698.281 509.933C698.026 509.491 697.657 509.126 697.213 508.874L650.748 482.186C647.616 480.382 645.014 477.786 643.203 474.659C641.392 471.531 640.436 467.982 640.431 464.368V311.483C640.429 308.366 641.19 305.296 642.648 302.541C644.106 299.787 646.217 297.431 648.795 295.679L655.773 290.932L657.082 292.854L650.103 297.6C647.839 299.139 645.986 301.209 644.705 303.629C643.425 306.049 642.756 308.745 642.757 311.483V464.369C642.762 467.574 643.61 470.722 645.216 473.496C646.822 476.269 649.13 478.572 651.908 480.171L698.373 506.859C699.173 507.312 699.838 507.97 700.299 508.765C700.759 509.56 701 510.464 700.995 511.383C701.001 512.303 700.762 513.207 700.302 514.004C699.843 514.801 699.18 515.461 698.381 515.916L610.581 566.47Z" fill="#D4ECFF"/>
<path d="M604.771 614.75C604.365 614.752 603.965 614.647 603.612 614.445C603.26 614.243 602.967 613.951 602.763 613.6C602.451 613.069 602.363 612.435 602.519 611.839C602.674 611.243 603.06 610.733 603.591 610.421L638.317 590.066C640.603 588.723 643.209 588.02 645.86 588.031C648.512 588.042 651.111 588.767 653.386 590.129L682.086 607.274C682.348 607.431 682.577 607.637 682.759 607.882C682.942 608.127 683.074 608.406 683.148 608.702C683.223 608.998 683.239 609.306 683.194 609.608C683.15 609.91 683.047 610.201 682.89 610.463C682.733 610.725 682.527 610.954 682.282 611.136C682.037 611.319 681.758 611.451 681.462 611.525C681.166 611.6 680.858 611.616 680.556 611.571C680.254 611.527 679.963 611.424 679.701 611.267L651.003 594.123C649.443 593.191 647.661 592.694 645.843 592.686C644.025 592.678 642.239 593.158 640.67 594.076L605.944 614.431C605.589 614.641 605.184 614.752 604.771 614.75Z" fill="#69BC50"/>
<path d="M555.524 723.6L362.298 612.043C355.578 608.163 356.422 601.389 364.178 596.911C371.936 592.432 383.669 591.945 390.387 595.825L583.614 707.385C590.333 711.262 589.49 718.035 581.733 722.516C573.976 726.993 562.242 727.48 555.524 723.6ZM740.337 428.429C738.895 427.598 737.341 426.872 735.725 426.225L735.772 426.221L726.9 422.287L727.568 423.838C720.844 422.5 713.546 422.415 706.761 423.617L707.175 421.895L696.737 426.52L696.799 426.525C695.444 427.101 694.125 427.718 692.897 428.428C679.797 435.992 679.797 448.254 692.898 455.816C705.999 463.38 727.239 463.38 740.337 455.818C753.436 448.255 753.436 435.993 740.337 428.429Z" fill="#D4ECFF"/>
<path d="M727.733 435.568C721.592 439.116 711.64 439.116 705.502 435.568C699.363 432.025 699.363 426.28 705.502 422.737C711.641 419.193 721.593 419.193 727.733 422.737C733.87 426.28 733.87 432.025 727.733 435.568Z" fill="#5793CE"/>
<path d="M716.616 431.599C715.914 431.599 715.22 431.461 714.572 431.192C713.924 430.923 713.335 430.53 712.839 430.034C712.343 429.538 711.949 428.949 711.681 428.3C711.413 427.652 711.275 426.958 711.275 426.256V358.705H721.961V426.256C721.96 427.673 721.397 429.032 720.395 430.034C719.392 431.036 718.033 431.599 716.616 431.599Z" fill="#5793CE"/>
<path d="M720.376 361.158C718.245 362.387 714.792 362.387 712.661 361.158C710.531 359.928 710.531 357.934 712.661 356.704C714.792 355.475 718.245 355.475 720.376 356.704C722.506 357.935 722.506 359.928 720.376 361.158Z" fill="#5793CE"/>
<path d="M716.616 361.027C716.047 361.027 715.484 360.915 714.958 360.697C714.432 360.48 713.955 360.161 713.552 359.758C713.15 359.356 712.831 358.878 712.614 358.352C712.396 357.827 712.285 357.263 712.285 356.694V293.194H720.948V356.694C720.948 357.263 720.836 357.826 720.618 358.352C720.401 358.878 720.082 359.356 719.68 359.758C719.277 360.16 718.8 360.479 718.274 360.697C717.748 360.915 717.185 361.027 716.616 361.027Z" fill="#D4ECFF"/>
<path d="M778.902 326.469V323.984L782.415 323.476L786.348 320.534C786.985 320.056 788.202 320.012 788.939 320.437L791.841 322.112L794.715 321.695V324.215L794.704 324.218C794.688 324.504 794.474 324.785 794.044 324.977L784.885 329.057C784.158 329.38 783.133 329.343 782.485 328.967L779.434 327.206C779.085 327.005 778.919 326.737 778.919 326.468L778.902 326.469Z" fill="#396CAA"/>
<path d="M779.279 323.315L786.347 318.028C786.984 317.55 788.201 317.505 788.938 317.93L794.209 320.973C794.946 321.4 794.867 322.102 794.043 322.469L784.884 326.549C784.157 326.872 783.132 326.833 782.484 326.459L779.433 324.7C778.787 324.325 778.721 323.732 779.279 323.315Z" fill="#5793CE"/>
<path d="M767.36 335.312C768.37 335.312 769.381 335.076 770.187 334.614L781.168 328.272C781.312 328.189 781.438 328.078 781.54 327.946C781.641 327.813 781.715 327.663 781.758 327.502C781.801 327.341 781.812 327.173 781.79 327.008C781.768 326.843 781.714 326.684 781.631 326.54C781.548 326.396 781.437 326.27 781.304 326.168C781.172 326.067 781.022 325.993 780.861 325.95C780.7 325.907 780.532 325.896 780.367 325.918C780.202 325.94 780.043 325.994 779.899 326.077L768.92 332.417C768.104 332.888 766.614 332.888 765.797 332.417L747.545 321.847C747.401 321.764 747.242 321.709 747.077 321.687C746.912 321.666 746.744 321.677 746.583 321.72C746.423 321.763 746.272 321.837 746.14 321.939C746.008 322.04 745.898 322.167 745.815 322.311C745.731 322.455 745.677 322.614 745.655 322.779C745.634 322.944 745.645 323.112 745.688 323.273C745.731 323.434 745.806 323.584 745.908 323.716C746.01 323.848 746.136 323.958 746.281 324.041L764.53 334.61C765.335 335.075 766.345 335.312 767.36 335.312Z" fill="#D4ECFF"/>
<path d="M661.775 312.079L679.409 301.83L669.528 297.367L661.076 303.36L661.775 312.079Z" fill="url(#paint0_radial_841_2)"/>
<path d="M775.005 296.864C773.971 296.324 772.98 295.706 772.039 295.017L734.464 267.482C727.683 262.507 720.696 261.226 715.297 263.965C715.156 264.038 715.035 264.136 714.9 264.212L714.859 264.199L662.964 294.305L667.628 295.858L685.8 304.1L710.525 321.639L730.037 331.993L730.922 332.181C735.474 328.35 740.566 325.061 743.359 319.474C748.191 311.019 761.641 308.6 769.549 301.747C770.348 302.253 771.147 302.727 771.944 303.137C773.576 301.535 774.017 299.252 775.005 296.864Z" fill="#5793CE"/>
<path d="M791.489 284.447C790.681 284.447 789.949 284.731 789.359 285.19L789.35 285.18L738.57 314.574L740.424 322.169L742.327 321.26C739.42 325.795 734.96 328.779 730.92 332.183L736.66 333.399L786.391 304.461C786.622 304.36 786.858 304.274 787.082 304.163C787.755 303.815 788.396 303.406 788.996 302.943L789.083 302.893L789.051 302.896C792.838 299.974 794.975 294.885 794.975 288.535V287.937C794.975 287.479 794.885 287.025 794.71 286.602C794.535 286.179 794.278 285.794 793.955 285.47C793.631 285.146 793.247 284.889 792.824 284.713C792.401 284.538 791.947 284.447 791.489 284.447Z" fill="#396CAA"/>
<path d="M721.945 262.564C725.116 262.679 728.513 263.768 731.917 265.789C728.514 263.769 725.116 262.68 721.945 262.564Z" fill="#EAEAEA"/>
<path d="M745.072 316.94V316.343C745.072 315.885 744.981 315.431 744.806 315.008C744.63 314.585 744.373 314.2 744.049 313.877C743.724 313.553 743.34 313.296 742.916 313.121C742.493 312.946 742.039 312.856 741.581 312.856C741.123 312.856 740.669 312.946 740.246 313.121C739.823 313.296 739.438 313.553 739.114 313.877C738.79 314.201 738.533 314.585 738.358 315.008C738.182 315.431 738.092 315.885 738.092 316.343V316.94C738.092 321.605 736.61 325.033 734.023 326.345C731.099 327.823 726.658 326.736 722.137 323.424L684.561 295.889C678.78 291.651 672.856 290.124 667.889 291.45L698.922 273.446L662.964 294.306L667.628 295.859L685.8 304.101L710.525 321.64L730.037 331.994L730.922 332.181C735.474 328.352 740.566 325.063 743.359 319.476C743.839 318.634 744.427 317.866 745.066 317.134C745.064 317.068 745.072 317.007 745.072 316.94Z" fill="#5793CE"/>
<path d="M730.018 335.107C725.908 335.109 721.38 333.435 716.94 330.18L679.364 302.646C674.846 299.335 670.405 298.246 667.478 299.727C664.891 301.038 663.409 304.463 663.409 309.129C663.409 310.055 663.041 310.942 662.387 311.597C661.732 312.251 660.845 312.619 659.919 312.619C658.993 312.619 658.106 312.251 657.451 311.597C656.797 310.942 656.429 310.055 656.429 309.129C656.429 301.739 659.307 296.044 664.321 293.5C669.718 290.766 676.707 292.046 683.491 297.016L721.065 324.552C725.586 327.864 730.029 328.951 732.951 327.47C735.539 326.16 737.023 322.733 737.023 318.07V317.472C737.045 316.561 737.422 315.695 738.074 315.058C738.726 314.422 739.601 314.066 740.512 314.066C741.423 314.066 742.298 314.422 742.95 315.058C743.602 315.695 743.979 316.561 744.001 317.472V318.07C744.001 325.458 741.124 331.153 736.105 333.697C734.239 334.643 732.187 335.107 730.018 335.107Z" fill="#D4ECFF"/>
<path d="M700.487 396.668C700.487 396.668 693.412 393.1 689.063 398.411C684.719 403.726 678.506 416.271 678.314 424.748C678.12 433.227 685.02 432.652 689.123 430.644C693.225 428.64 705.208 411.256 705.934 407.851C706.659 404.446 705.077 399.839 703.926 398.941C702.772 398.039 700.487 396.668 700.487 396.668Z" fill="#173D7A"/>
<path d="M702.031 394.96L702.358 402.293C702.428 403.853 701.644 405.336 700.288 406.106C699.052 406.809 697.256 407.345 694.829 406.958C689.499 406.101 689.021 404.577 688.641 397.247C688.26 389.916 702.031 394.96 702.031 394.96Z" fill="#5793CE"/>
<path d="M674.582 382.57C674.582 382.57 667.507 378.999 663.158 384.316C658.815 389.628 652.601 402.175 652.409 410.649C652.215 419.127 659.115 418.554 663.218 416.549C667.321 414.54 679.304 397.159 680.029 393.752C680.754 390.347 679.173 385.743 678.021 384.841C676.867 383.94 674.582 382.57 674.582 382.57Z" fill="#173D7A"/>
<path d="M676.126 380.865L676.453 388.196C676.524 389.756 675.74 391.241 674.383 392.009C673.148 392.712 671.353 393.249 668.924 392.858C663.594 392.002 663.117 390.479 662.737 383.15C662.354 375.818 676.126 380.865 676.126 380.865Z" fill="#5793CE"/>
<path d="M739.274 246.258C737.179 212.178 702.365 251.273 702.365 251.273L678.539 274.627L657.083 298.196C655.013 300.47 653.464 303.169 652.544 306.103C651.623 309.037 651.354 312.137 651.755 315.186L660.434 381.279C660.642 382.853 661.419 384.296 662.619 385.336C663.819 386.376 665.358 386.94 666.946 386.922C668.024 386.908 669.099 386.814 670.163 386.64C677.907 385.435 677.335 378.073 677.335 378.073L675.748 316.259L720.805 289.098C720.804 289.096 741.368 280.339 739.274 246.258Z" fill="#FDD762"/>
<path d="M765.176 259.244C763.082 225.164 728.271 264.257 728.271 264.257L704.445 287.611L682.987 311.181C680.917 313.455 679.368 316.154 678.448 319.088C677.527 322.022 677.257 325.122 677.657 328.171L686.34 394.261C686.768 397.524 689.562 399.931 692.852 399.907C693.782 399.899 694.847 399.812 696.068 399.625C703.809 398.417 703.241 391.058 703.241 391.058L701.652 329.244L746.711 302.083C746.709 302.082 767.27 293.323 765.176 259.244Z" fill="#FDD762"/>
<path d="M744.581 149.846C770.977 160.787 770.446 176.39 770.446 176.39C770.446 176.39 765.275 233.586 767.041 271.786C767.78 287.756 682.197 288.974 694.96 246.372C710.008 196.141 704.369 155.475 711.412 149.341C718.458 143.208 737.754 147.016 744.581 149.846Z" fill="#69BC50"/>
<path d="M737.388 169.993C744.669 171.869 751.69 169.044 753.07 163.685C754.45 158.326 749.667 152.462 742.386 150.587C735.106 148.712 728.085 151.536 726.705 156.895C725.324 162.254 730.108 168.118 737.388 169.993Z" fill="#FFC2B0"/>
<path d="M741.895 171.829C740.313 171.829 738.689 171.626 737.078 171.209C733.296 170.234 730.012 168.223 727.823 165.539C725.545 162.748 724.718 159.563 725.488 156.572C727.041 150.55 734.763 147.322 742.707 149.358C746.487 150.332 749.771 152.344 751.958 155.028C754.235 157.82 755.065 161.004 754.295 163.996C753.524 166.985 751.261 169.372 747.918 170.718C746.074 171.456 744.022 171.829 741.895 171.829ZM737.873 151.26C732.97 151.26 728.875 153.54 727.93 157.203C727.365 159.396 728.022 161.792 729.779 163.944C731.63 166.212 734.443 167.926 737.708 168.764C740.971 169.607 744.261 169.461 746.975 168.374C749.555 167.335 751.288 165.557 751.852 163.365V163.363C752.418 161.171 751.76 158.777 750.004 156.622C748.153 154.355 745.339 152.643 742.075 151.802C740.703 151.446 739.291 151.264 737.873 151.26Z" fill="white"/>
<path d="M733.999 148.656C733.999 148.656 734.226 149.716 733.77 158.079C733.626 160.708 742.832 163.165 745.212 160.784C747.592 158.404 746.641 155.929 747.212 146.98C747.784 138.033 733.999 148.656 733.999 148.656Z" fill="#FFC2B0"/>
<path d="M747.213 146.98C747.213 146.98 744.945 155.277 733.771 158.459L733.94 150.919L747.213 146.98Z" fill="#EA9C92"/>
<path d="M734.623 151.301C745.843 151.301 754.939 142.205 754.939 130.985C754.939 119.765 745.843 110.669 734.623 110.669C723.403 110.669 714.307 119.765 714.307 130.985C714.307 142.205 723.403 151.301 734.623 151.301Z" fill="#FFC2B0"/>
<path d="M739.289 131.729C739.289 131.729 728.102 136.522 720.358 136.577C712.613 136.631 714.32 130.147 714.32 130.147L737.309 126.824L739.289 131.729Z" fill="#EA9C92"/>
<path d="M718.05 132.993C718.05 132.993 727.795 128.857 736.343 130.583C738.352 130.987 740.214 132.062 741.509 133.651C741.931 134.171 742.466 134.643 743.072 134.782C744.587 135.126 747.069 128.837 750.016 128.693C752.961 128.55 754.925 130.636 752.511 134.503C750.096 138.371 750.913 142.7 752.024 143.321C753.136 143.941 764.924 134.913 754.527 114.309C744.127 93.7081 717.711 104.804 713.6 108.98C713.6 108.98 709.271 112.751 705.753 109.395C705.753 109.396 701.807 138.95 718.05 132.993Z" fill="#173D7A"/>
<path d="M755.641 218.178V233.634C755.641 234.51 755.458 235.376 755.104 236.177C754.75 236.978 754.233 237.696 753.586 238.286L721.835 267.231L725.443 272.749L767.373 242.341C768.34 241.639 769.149 240.741 769.747 239.705C770.345 238.67 770.719 237.521 770.844 236.332L773.678 209.38L755.641 218.178Z" fill="#FFC2B0"/>
<path d="M768.212 168.661C768.212 168.661 777.844 183.147 781.434 221.277C781.434 221.277 764.98 226.599 755.641 223.578C746.303 220.558 768.212 168.661 768.212 168.661Z" fill="#3FAE1E"/>
<path d="M753.881 186.977C753.881 186.977 750.11 207.159 749.898 216.644C749.865 217.913 750.232 219.161 750.946 220.21C751.661 221.26 752.688 222.058 753.881 222.492V186.977Z" fill="#33771F"/>
<path d="M745.645 287.33L738.626 286.402L693.328 260.25C691.876 259.412 689.34 259.517 687.663 260.485L655.565 279.009L651.323 278.448V282.674H651.325C651.298 283.23 651.616 283.764 652.3 284.16L703.635 313.8C705.089 314.638 707.626 314.532 709.303 313.565L744.26 293.388C745.201 292.845 745.672 292.144 745.645 291.484V287.33Z" fill="#173D7A"/>
<path d="M711.607 270.802L708.389 268.946H673.007L655.565 279.01L651.323 278.449V282.675H651.325C651.298 283.231 651.616 283.765 652.3 284.161L703.635 313.801C704.404 314.242 705.475 314.42 706.562 314.348L711.607 270.802Z" fill="#396CAA"/>
<path d="M653.204 278.698L651.323 278.449V282.675H651.325C651.298 283.231 651.616 283.765 652.3 284.161L653.204 284.684V278.698Z" fill="#5793CE"/>
<path d="M704.153 314.041C705.529 314.562 707.496 314.449 708.965 313.741V306.554H704.153V314.041Z" fill="#274F89"/>
<path d="M703.635 309.578L652.3 279.94C650.848 279.1 651.031 277.638 652.706 276.668L687.663 256.494C689.34 255.525 691.876 255.42 693.328 256.26L744.666 285.898C746.117 286.737 745.936 288.201 744.26 289.169L709.303 309.344C707.626 310.312 705.089 310.418 703.635 309.578Z" fill="white"/>
<path d="M702.768 305.087L660.081 280.443C658.875 279.746 659.023 278.528 660.42 277.721L679.151 267.189C680.546 266.381 682.657 266.295 683.863 266.993L726.549 291.639C727.758 292.336 727.605 293.553 726.211 294.358L707.48 304.893C706.085 305.696 703.977 305.785 702.768 305.087Z" fill="#D4ECFF"/>
<path d="M689.648 255.52L689.116 259.064C688.664 262.082 688.742 265.155 689.347 268.146L689.98 271.266C690.154 272.127 690.582 272.916 691.209 273.53C691.836 274.145 692.633 274.557 693.497 274.714C693.824 274.774 694.159 274.765 694.482 274.69C694.806 274.615 695.11 274.473 695.377 274.275C695.643 274.077 695.866 273.827 696.032 273.539C696.197 273.251 696.302 272.932 696.339 272.602L697.185 265.03C697.185 265.03 699.123 267.569 700.058 267.569C700.993 267.569 699.012 259.985 696.894 255.693C694.779 251.401 689.648 255.52 689.648 255.52Z" fill="#FFC2B0"/>
<path d="M707.05 199.226L701.541 210.128C700.239 212.705 699.472 215.519 699.287 218.401L696.893 255.692L689.648 255.519L686.358 213.644C686.257 212.351 686.321 211.05 686.546 209.772L690.303 188.534L707.05 199.226Z" fill="#FFC2B0"/>
<path d="M701.897 312.426L697.593 306.808L652.327 280.598C650.873 279.76 649.7 277.508 649.703 275.572L649.741 238.511L647.137 235.113L649.583 233.697L649.586 233.701C650.053 233.397 650.676 233.408 651.361 233.803L702.661 263.505C704.114 264.345 705.287 266.597 705.284 268.533L705.24 308.891C705.239 309.982 704.867 310.739 704.281 311.043L701.897 312.426Z" fill="#173D7A"/>
<path d="M670.594 291.175L667.378 289.313L649.724 258.649L649.743 238.511L647.139 235.113L649.585 233.697L649.588 233.701C650.055 233.397 650.678 233.408 651.363 233.803L702.663 263.505C703.432 263.948 704.117 264.788 704.597 265.767L670.594 291.175Z" fill="#396CAA"/>
<path d="M648.295 236.62L647.139 235.112L649.585 233.696L649.588 233.7C650.055 233.396 650.678 233.407 651.363 233.802L652.267 234.326L648.295 236.62Z" fill="#5793CE"/>
<path d="M703.129 263.833C704.27 264.766 705.153 266.527 705.274 268.152L700.261 271.048L697.858 266.876L703.129 263.833Z" fill="#274F89"/>
<path d="M700.221 264.919L648.92 235.217C647.468 234.377 646.291 235.267 646.287 237.202L646.244 277.561C646.241 279.499 647.416 281.749 648.867 282.587L700.169 312.291C701.618 313.131 702.797 312.242 702.801 310.306L702.842 269.947C702.846 268.009 701.671 265.759 700.221 264.919Z" fill="#5793CE"/>
<path d="M725.443 272.749L724.619 274.454C723.673 276.413 722.187 278.062 720.335 279.204L715.238 282.346C713.652 283.324 711.647 283.405 710.036 282.466C709.98 282.433 709.92 282.399 709.863 282.362C708.245 281.348 708.097 279.023 709.429 277.652L714.753 272.177C714.753 272.177 711.761 274.471 710.924 273.546C710.308 272.869 713.824 269.57 716.526 269.46C719.225 269.353 721.835 267.231 721.835 267.231L725.443 272.749Z" fill="#FFC2B0"/>
<path d="M711.942 149.26C711.942 149.26 692.421 170.5 684.546 189.986C684.546 189.986 691.222 202.012 707.56 206.732C723.9 211.45 711.942 149.26 711.942 149.26Z" fill="#3FAE1E"/>
<path d="M703.885 205.471L707.05 174.907L699.595 203.543C700.989 204.263 702.421 204.907 703.885 205.471Z" fill="#33771F"/>
<path d="M726.563 144.974L721.319 143.534C721.319 143.534 723.821 147.473 727.478 148.477C731.132 149.481 731.703 146.386 731.703 146.386L726.563 144.974Z" fill="white"/>
<path d="M590.512 132.597L382.313 12.3699C375.472 8.42089 369.257 8.32289 364.558 11.2869L364.549 11.2399L338.426 26.3709L355.944 29.6389C355.88 30.5529 355.844 31.4687 355.838 32.3849V523.442C355.838 542.939 367.691 565.587 382.314 574.03L587.586 692.567C585.645 698.635 583.696 704.701 581.74 710.764L607.287 695.948H607.279C613.203 692.894 616.986 685.251 616.986 674.242V183.182C616.985 163.686 605.133 141.038 590.512 132.597Z" fill="#69BC50"/>
<path d="M786.214 554.149L754.943 536.096L723.676 554.149L754.943 572.203L786.214 554.149Z" fill="#D4ECFF"/>
<path d="M754.943 555.458V535.114L792.304 513.547V533.89L754.943 555.458Z" fill="#E8A200"/>
<path d="M754.943 535.114L717.586 513.547V533.89L754.943 555.458V535.114Z" fill="#F9BF30"/>
<path d="M792.304 513.547L754.943 491.978L717.586 513.547L754.943 535.114L792.304 513.547Z" fill="#FDD762"/>
<path d="M662.697 278.657C662.697 281.855 660.452 283.15 657.683 281.552C654.913 279.954 652.668 276.066 652.668 272.869C652.668 269.672 654.913 268.376 657.683 269.975C660.452 271.574 662.697 275.461 662.697 278.657Z" fill="white"/>
<path d="M610.004 552.143C609.595 552.143 609.193 552.035 608.838 551.83C608.484 551.625 608.19 551.33 607.987 550.975C607.834 550.71 607.735 550.418 607.696 550.115C607.656 549.812 607.676 549.504 607.756 549.209C607.835 548.914 607.971 548.638 608.158 548.396C608.344 548.153 608.576 547.95 608.841 547.798L696.637 497.247C697.422 496.792 697.507 496.04 697.507 495.738C697.507 495.436 697.421 494.687 696.634 494.236L650.168 467.548C646.859 465.642 644.11 462.899 642.197 459.595C640.283 456.29 639.273 452.54 639.268 448.722V295.832C639.266 292.526 640.074 289.269 641.62 286.347C643.167 283.425 645.405 280.926 648.14 279.068L655.119 274.321C655.372 274.149 655.656 274.029 655.955 273.967C656.254 273.905 656.562 273.902 656.862 273.96C657.163 274.017 657.449 274.133 657.704 274.3C657.959 274.468 658.179 274.684 658.351 274.937C658.523 275.19 658.643 275.474 658.705 275.773C658.767 276.072 658.769 276.38 658.712 276.681C658.655 276.981 658.539 277.267 658.372 277.522C658.204 277.777 657.988 277.997 657.735 278.169L650.757 282.916C648.65 284.347 646.924 286.272 645.733 288.523C644.541 290.775 643.918 293.284 643.92 295.831V448.721C643.924 451.721 644.717 454.668 646.221 457.264C647.724 459.861 649.885 462.016 652.485 463.513L698.951 490.201C699.929 490.755 700.742 491.56 701.306 492.532C701.87 493.505 702.164 494.611 702.158 495.735C702.165 496.859 701.872 497.966 701.31 498.939C700.747 499.913 699.936 500.719 698.958 501.275L611.162 551.828C610.811 552.035 610.411 552.143 610.004 552.143Z" fill="#69BC50"/>
<path d="M355.837 523.441C355.837 542.938 367.69 565.586 382.313 574.029L587.585 692.566C585.644 698.634 583.695 704.7 581.739 710.763L607.286 695.947H607.278C613.202 692.893 616.985 685.25 616.985 674.241V183.181C616.985 173.01 613.74 161.997 608.577 152.578L355.837 298.497V523.441Z" fill="#69BC50"/>
<path d="M564.246 709.469L356.049 589.242C341.429 580.802 329.573 558.151 329.573 538.657V47.6011C329.573 28.1051 341.428 19.1451 356.049 27.5851L564.246 147.812C578.868 156.254 590.722 178.903 590.722 198.398V689.458C590.722 708.949 578.868 717.913 564.246 709.469Z" fill="#33771F"/>
<path d="M363.999 181.393L347.881 170.3L341.589 149.651L335.29 163.03L329.551 160.354V171.726L331.4 174.612L329.551 182.815V190.637L341.589 189.039L355.438 206.87L351.774 186.376L363.999 181.393Z" fill="#D3008D"/>
<path d="M560.37 693.213L360.314 577.686C349.447 571.413 340.634 554.58 340.634 540.09V56.006C340.634 41.515 349.447 34.857 360.314 41.128L560.37 156.653C571.236 162.928 580.047 179.761 580.047 194.253V678.336C580.047 692.828 571.236 699.487 560.37 693.213Z" fill="white"/>
<path d="M478.534 544.537L380.336 487.842V249.128L426.604 275.84C442.393 284.956 455.504 298.067 464.62 313.857C473.736 329.646 478.535 347.556 478.535 365.788V544.537H478.534Z" fill="#EDEDED"/>
<path d="M345.225 226.036L345.235 226.055C335.325 220.154 321.554 220.88 306.345 229.66C276.235 247.047 251.741 289.472 251.741 324.239V349.33L252.774 349.937L351.151 407.809L352.643 377.788L353.868 366.129L359.086 348.025L359.684 345.254L370.872 322.713L379.682 311.706L386.826 303.189L404.23 289.485L405.76 288.347L414.316 284.665L425.823 281.673H434.798L444.833 283.431L345.225 226.036Z" fill="#D4ECFF"/>
<path d="M357.763 458.074L360.952 456.234V341.927C359.294 344.184 358.52 347.078 357.763 350.019V458.074Z" fill="#D4ECFF"/>
<path d="M457.176 515.35L357.763 458.074L358.788 349.864L362.584 338.936L374.09 319.146L387.705 302.998L399.979 293.179L413.249 285.124L437.326 282.364L450.061 289.576L457.176 300.467L459.417 317.189L458.652 498.065L457.176 515.35Z" fill="#D4ECFF"/>
<path d="M345.234 226.055C336.944 221.117 325.943 220.84 313.667 226.021L414.958 284.5L425.821 281.674H434.796L444.831 283.432L345.225 226.036L345.234 226.055Z" fill="#5793CE"/>
<path d="M316.053 225.076C312.901 226.239 309.661 227.749 306.345 229.66C304.094 230.969 301.909 232.388 299.798 233.912L400.772 292.207L404.229 289.485L405.759 288.347L414.315 284.665L417.729 283.779L316.053 225.076Z" fill="#E9F6FF"/>
<path d="M387.678 302.516L401.416 291.7L300.474 233.422C295.903 236.628 291.501 240.388 287.335 244.585L387.678 302.516Z" fill="white"/>
<path d="M460.363 513.509L457.175 515.35V320.303C457.175 287.568 434.11 274.25 405.758 290.619C377.405 306.988 354.339 346.937 354.339 379.676V405.97L351.151 407.81V381.515C351.151 346.749 375.646 304.323 405.758 286.938C435.868 269.553 460.362 283.696 460.362 318.463V513.509H460.363Z" fill="#5793CE"/>
<path d="M281.892 305.59L276.296 328.465L279.094 365.423L272.002 361.247L262.921 341.158L270.87 315.77L281.892 305.59Z" fill="#AEDEED"/>
<path opacity="0.4" d="M444.55 451.981C443.946 451.981 443.316 451.8 442.688 451.435L370.393 409.695C368.265 408.468 366.596 405.329 366.596 402.545V345.663C366.596 343.992 367.214 342.677 368.291 342.056C369.245 341.5 370.408 341.562 371.557 342.227L443.85 383.965C445.98 385.193 447.648 388.335 447.648 391.115V447.998C447.648 449.669 447.031 450.985 445.955 451.61C445.527 451.854 445.043 451.982 444.55 451.981ZM369.698 344.009C369.613 344.008 369.528 344.029 369.453 344.069C369.208 344.214 368.922 344.715 368.922 345.664V402.546C368.922 404.507 370.127 406.859 371.557 407.683L443.85 449.423C444.038 449.527 444.498 449.753 444.792 449.595C445.036 449.453 445.321 448.951 445.321 447.999V391.116C445.321 389.157 444.115 386.803 442.687 385.98L370.392 344.24C370.255 344.159 369.96 344.009 369.698 344.009Z" fill="white"/>
<path d="M392.836 412.016L392.328 411.723C390.442 410.634 388.917 407.716 388.917 405.202V378.098C388.917 375.583 390.442 374.429 392.328 375.518L392.836 375.813C394.723 376.899 396.249 379.818 396.249 382.332V409.437C396.249 411.948 394.723 413.102 392.836 412.016ZM407.378 420.41L406.868 420.114C404.984 419.03 403.456 416.106 403.456 413.595V397.732C403.456 395.217 404.984 394.064 406.868 395.152L407.378 395.445C409.261 396.533 410.79 399.454 410.79 401.966V417.828C410.79 420.341 409.261 421.497 407.378 420.41Z" fill="#B2D3EA"/>
<path d="M421.918 428.806L421.409 428.511C419.523 427.425 417.996 424.503 417.996 421.99V384.226C417.996 381.716 419.523 380.558 421.409 381.647L421.918 381.942C423.803 383.029 425.328 385.948 425.328 388.46V426.225C425.328 428.736 423.803 429.894 421.918 428.806Z" fill="#396CAA"/>
<path d="M261.509 709.601C285.799 723.624 325.184 723.624 349.474 709.599C373.764 695.576 373.764 672.84 349.474 658.816C325.184 644.794 285.802 644.794 261.513 658.816C237.221 672.84 237.221 695.577 261.509 709.601Z" fill="#D4ECFF"/>
<path d="M267.38 665.176C263.046 667.029 260.319 671.858 260.68 677.049C260.852 679.498 261.147 681.781 261.657 682.853C263.038 685.748 267.557 689.719 274.769 686.871C281.983 684.019 297.999 668.971 298.6 659.115C299.714 640.817 278.791 660.304 267.38 665.176ZM309.758 695.443C309.758 695.443 308.029 705.995 308.866 707.925C309.709 709.863 314.728 713.988 322.145 713.097C329.559 712.203 350.897 704.846 355.648 690.786C363.015 668.984 314.463 692.421 314.463 692.421L309.758 695.443Z" fill="#173D7A"/>
<path d="M330.608 526.771L332.257 691.482C332.083 697.211 328.33 702.048 323.287 702.9C322.661 703.006 321.993 703.091 321.277 703.153C316.17 703.603 313.191 701.408 311.492 699.104C310.118 697.241 309.394 694.875 309.291 692.454L307.188 622.144L296.692 559.276L282.17 670.543C281.936 673.552 280.495 676.335 278.176 677.867C276.577 678.928 274.406 679.751 271.556 679.666C267.399 679.54 264.513 677.312 262.753 675.327C261.357 673.756 260.623 671.591 260.651 669.372L266.405 602.426L268.549 517.033L330.608 526.771Z" fill="#FDD762"/>
<path d="M309.277 379.337L306.673 394.343C306.673 394.343 306.576 399.466 312.294 400.885C318.011 402.304 319.779 398.612 319.779 398.612L322.364 381.71L309.277 379.337Z" fill="#FFC2B0"/>
<path d="M340.787 371.114C336.728 383.971 324.168 391.434 312.732 387.784C301.297 384.13 295.316 370.745 299.375 357.89C303.435 345.031 315.997 337.567 327.432 341.22C338.865 344.873 344.848 358.257 340.787 371.114Z" fill="#FFC2B0"/>
<path d="M309.956 394.619C309.561 394.457 285.698 379.094 276.878 395.171C262.495 421.39 273.015 451.449 267.884 516.718C267.026 527.639 282.581 534.293 289.935 538.495C296.481 542.232 303.802 544.524 311.339 544.583C318.796 544.642 333.094 538.013 332.577 528.266C330.189 483.43 334.152 445.638 337.814 408.967C337.814 408.967 333.238 404.041 309.956 394.619Z" fill="#69BC50"/>
<path d="M296.693 559.276L282.17 670.545C281.936 673.552 280.495 676.335 278.176 677.867C277.8 678.119 277.383 678.354 276.939 678.569C279.954 676.309 288.758 582.914 290.385 572.526C292.014 562.132 296.693 559.276 296.693 559.276Z" fill="#D8892B"/>
<path d="M387.331 408.201L407.308 368.548L401.04 364.589L380.336 394.793L387.331 408.201ZM255.558 366.095L265.274 321.883L273.015 321.965L270.11 358.635L255.558 366.095Z" fill="#FFC2B0"/>
<path d="M337.814 408.967C337.814 408.967 360.158 417.781 379.359 393.564C381.047 391.429 384.523 391.668 385.523 393.967C387.251 397.937 389.412 403.934 386.791 409.563C375.187 434.465 335.596 433.601 326.057 447.561C316.518 461.52 337.814 408.967 337.814 408.967ZM294.821 389.108C294.821 389.108 276.371 390.527 273.716 374.558C272.348 366.335 271.939 361.422 271.861 358.592C271.852 358.141 271.748 357.697 271.557 357.289C271.365 356.881 271.09 356.517 270.749 356.222C270.408 355.927 270.009 355.707 269.577 355.576C269.146 355.445 268.692 355.406 268.244 355.462C263.826 356.011 256.986 357.328 256.056 360.291C254.67 364.713 252.065 386.397 270.289 419.672C282.228 441.471 294.821 389.108 294.821 389.108Z" fill="#69BC50"/>
<path d="M265.234 321.991L265.411 316.949C265.474 315.169 265.993 313.436 266.92 311.915L272.028 303.519L273.361 301.841C273.955 301.092 274.805 300.588 275.748 300.427C276.69 300.266 277.659 300.458 278.469 300.967L279.643 301.707C280.379 302.169 280.977 302.821 281.372 303.595C281.768 304.369 281.947 305.235 281.891 306.102L279.248 313.277L282.592 312.631C282.746 312.601 282.905 312.602 283.058 312.634C283.212 312.666 283.358 312.728 283.487 312.817C283.617 312.905 283.727 313.019 283.813 313.15C283.898 313.282 283.956 313.43 283.984 313.584C284.034 313.853 283.989 314.13 283.857 314.369C283.725 314.608 283.515 314.794 283.261 314.895L277.802 317.099L272.842 324.116L265.234 321.991ZM407.454 368.8L409.794 364.329C410.619 362.751 411.025 360.988 410.971 359.208L410.679 349.385L410.349 347.266C410.202 346.322 409.712 345.464 408.972 344.859C408.233 344.253 407.296 343.941 406.341 343.983L404.952 344.045C404.084 344.084 403.242 344.356 402.515 344.834C401.789 345.311 401.204 345.975 400.824 346.757L399.577 354.3L396.994 352.086C396.875 351.983 396.736 351.906 396.587 351.857C396.437 351.808 396.279 351.79 396.122 351.803C395.965 351.816 395.813 351.86 395.673 351.933C395.533 352.005 395.41 352.105 395.309 352.226C395.134 352.435 395.037 352.698 395.033 352.971C395.03 353.244 395.122 353.509 395.292 353.722L398.949 358.336L399.894 367.947L407.454 368.8Z" fill="#FFC2B0"/>
<path d="M323.244 442.566C321.302 451.421 333 518.223 319.991 542.651C326.495 540.016 332.927 534.859 332.577 528.265C330.868 496.201 332.412 467.749 334.769 440.726C345.893 435.09 363.276 431.728 375.573 422.724C362.389 427.583 324.977 434.66 323.244 442.566Z" fill="#3FAE1E"/>
<path d="M301.378 390.378L304.69 386.977C304.69 386.977 310.141 392.545 314.52 393.51C314.52 393.51 319.789 395.002 322.365 395.132L324.499 401.014C324.498 401.014 307.142 399.77 301.378 390.378Z" fill="white"/>
<path d="M325.223 371.515C326.137 371.498 326.987 371.083 327.506 370.331C328.413 369.017 327.841 362.99 330.634 361.992C334.996 360.435 345.346 365.897 346.454 350.157C347.027 341.972 343.046 339.799 343.064 335.317C343.064 335.317 343.41 337.564 322.355 336.166C301.304 334.766 294.459 353.461 293.96 362.366C293.462 371.27 297.771 385.911 312.159 387.921C314.546 388.254 324.564 380.195 324.305 379.139C324.046 378.083 320.264 378.141 320.811 375.066C321.269 372.503 322.831 371.559 325.223 371.515Z" fill="#173D7A"/>
<path d="M433.219 181.382L369.61 144.657C366.783 143.023 364.492 138.645 364.492 134.877V87.5791C364.492 83.8101 366.783 82.0771 369.61 83.7091L433.219 120.436C436.048 122.067 438.34 126.446 438.34 130.213V177.512C438.34 181.282 436.048 183.014 433.219 181.382Z" fill="#EDEDED"/>
<path d="M426.925 106.347L363.315 69.622C362.058 68.894 360.919 68.867 360.027 69.357L360.031 69.317L353.862 72.88C353.862 72.88 356.592 73.877 358.196 74.465V120.788C358.196 124.558 360.488 128.935 363.315 130.567L424.113 165.669V171.106L430.348 167.514L430.315 167.504C431.37 166.862 432.044 165.451 432.044 163.424V116.126C432.043 112.356 429.752 107.979 426.925 106.347Z" fill="#33771F"/>
<path d="M420.643 170.916L357.031 134.189C354.207 132.556 351.914 128.179 351.914 124.41V77.113C351.914 73.344 354.207 71.611 357.031 73.243L420.643 109.968C423.468 111.602 425.76 115.978 425.76 119.748V167.046C425.76 170.814 423.468 172.546 420.643 170.916Z" fill="#69BC50"/>
<path d="M420.643 109.968L357.03 73.2429C355.424 72.3149 354.008 72.5069 353.069 73.5069C353.753 73.4509 354.513 73.6119 355.327 74.0829L418.939 110.81C421.764 112.441 424.056 116.82 424.056 120.587V167.886C424.056 169.513 423.611 170.729 422.901 171.49C424.588 171.349 425.759 169.727 425.759 167.046V119.75C425.76 115.978 423.468 111.6 420.643 109.968Z" fill="white"/>
<path d="M378.423 117.891C378.423 120.628 376.501 121.737 374.131 120.37C371.761 119.001 369.839 115.672 369.839 112.934C369.839 110.199 371.761 109.089 374.131 110.457C376.501 111.826 378.423 115.153 378.423 117.891ZM391.427 125.396C391.427 128.133 389.504 129.243 387.133 127.875C384.763 126.506 382.84 123.178 382.84 120.441C382.84 117.704 384.763 116.594 387.133 117.963C389.504 119.333 391.427 122.661 391.427 125.396ZM404.428 132.905C404.428 135.64 402.507 136.75 400.134 135.382C397.767 134.013 395.844 130.686 395.844 127.948C395.844 125.21 397.767 124.101 400.134 125.469C402.507 126.84 404.428 130.168 404.428 132.905Z" fill="white"/>
<path d="M559.804 431.056L496.192 394.329C493.365 392.699 491.075 388.322 491.075 384.552V278.105C491.075 274.334 493.365 272.603 496.192 274.235L559.804 310.962C562.63 312.594 564.922 316.972 564.922 320.739V427.187C564.922 430.956 562.63 432.689 559.804 431.056Z" fill="#EDEDED"/>
<path d="M553.508 296.873L489.899 260.148C488.639 259.42 487.501 259.393 486.609 259.882C486.612 259.868 486.614 259.855 486.615 259.841L480.445 263.406C480.445 263.406 483.177 264.401 484.781 264.991V370.463C484.781 374.232 487.073 378.609 489.899 380.242L550.699 415.345V420.779L556.932 417.19L556.898 417.18C557.951 416.537 558.628 415.126 558.628 413.099V306.651C558.628 302.883 556.335 298.505 553.508 296.873Z" fill="#5793CE"/>
<path d="M547.226 420.59L483.616 383.863C480.788 382.231 478.495 377.853 478.495 374.085V267.639C478.495 263.87 480.788 262.138 483.616 263.769L547.226 300.495C550.051 302.127 552.343 306.505 552.343 310.275V416.722C552.343 420.49 550.051 422.223 547.226 420.59Z" fill="#D4ECFF"/>
<path d="M547.226 300.494L483.616 263.768C482.008 262.841 480.59 263.031 479.655 264.034C480.338 263.978 481.097 264.138 481.912 264.609L545.523 301.336C548.348 302.968 550.639 307.346 550.639 311.113V417.56C550.639 419.187 550.198 420.403 549.483 421.164C551.174 421.025 552.343 419.401 552.343 416.722V310.274C552.343 306.504 550.051 302.125 547.226 300.494Z" fill="white"/>
<path d="M559.804 574.873L496.192 538.149C493.365 536.515 491.075 532.139 491.075 528.372V421.923C491.075 418.154 493.365 416.422 496.192 418.053L559.804 454.78C562.63 456.414 564.922 460.791 564.922 464.56V571.006C564.922 574.773 562.63 576.507 559.804 574.873Z" fill="#EDEDED"/>
<path d="M553.508 440.691L489.899 403.964C488.639 403.236 487.501 403.21 486.609 403.7C486.612 403.687 486.614 403.673 486.615 403.66L480.445 407.226C480.445 407.226 483.177 408.221 484.781 408.809V514.28C484.781 518.049 487.073 522.428 489.899 524.058L550.699 559.163V564.597L556.932 561.009L556.898 560.995C557.951 560.351 558.628 558.942 558.628 556.914V450.471C558.628 446.702 556.335 442.322 553.508 440.691Z" fill="#D3008D"/>
<path d="M547.226 564.407L483.616 527.682C480.788 526.05 478.495 521.673 478.495 517.904V411.457C478.495 407.688 480.788 405.956 483.616 407.584L547.226 444.315C550.051 445.944 552.343 450.325 552.343 454.092V560.538C552.343 564.308 550.051 566.04 547.226 564.407Z" fill="#FF2C9C"/>
<path d="M547.226 444.311L483.616 407.584C482.008 406.658 480.59 406.852 479.655 407.852C480.338 407.796 481.097 407.956 481.912 408.427L545.523 445.155C548.348 446.785 550.639 451.166 550.639 454.931V561.379C550.639 563.003 550.198 564.222 549.483 564.984C551.174 564.842 552.343 563.221 552.343 560.539V454.093C552.343 450.321 550.051 445.944 547.226 444.311Z" fill="white"/>
<path d="M132.936 621.122L188.842 589.621C191.327 588.22 195.637 588.443 198.471 590.119L234.041 611.154C236.877 612.827 237.157 615.321 234.674 616.721L178.768 648.225C176.283 649.625 171.971 649.402 169.138 647.725L133.57 626.691C130.735 625.013 130.453 622.523 132.936 621.122Z" fill="#D4ECFF"/>
<path d="M177.958 632.391L241.949 596.328C243.216 595.616 243.82 594.651 243.852 593.636C243.855 593.636 243.882 593.658 243.882 593.658L243.956 586.532C243.956 586.532 241.706 588.377 240.384 589.458L200.513 565.878C197.269 563.96 192.332 563.703 189.49 565.306L128.325 599.772L123.647 597.005L123.563 604.198L123.591 604.174C123.609 605.407 124.479 606.707 126.222 607.741L166.935 631.818C170.18 633.734 175.114 633.992 177.958 632.391Z" fill="#F9BF30"/>
<path d="M125.58 594.112L189.571 558.054C192.415 556.451 197.35 556.708 200.595 558.624L241.307 582.701C244.552 584.622 244.875 587.473 242.033 589.077L178.039 625.135C175.198 626.739 170.262 626.481 167.018 624.561L126.305 600.485C123.061 598.568 122.736 595.716 125.58 594.112Z" fill="#FDD762"/>
<path d="M178.042 625.136L242.032 589.078C243.647 588.166 244.206 586.85 243.82 585.532C243.52 586.152 242.995 586.721 242.176 587.184L178.183 623.241C175.339 624.844 170.404 624.591 167.161 622.667L126.448 598.594C125.049 597.765 124.228 596.766 123.935 595.764C123.196 597.287 123.996 599.122 126.304 600.486L167.017 624.562C170.262 626.485 175.197 626.739 178.042 625.136Z" fill="white"/>
<path d="M192.712 584.763C190.356 583.371 190.379 581.153 192.762 579.809C195.148 578.465 198.991 578.502 201.346 579.897C203.702 581.293 203.678 583.511 201.295 584.856C198.912 586.196 195.069 586.158 192.712 584.763ZM179.631 592.134C177.276 590.742 177.299 588.524 179.683 587.18C182.069 585.834 185.91 585.877 188.266 587.268C190.622 588.663 190.599 590.88 188.215 592.222C185.829 593.567 181.988 593.525 179.631 592.134ZM166.552 599.505C164.196 598.11 164.219 595.895 166.605 594.549C168.989 593.203 172.831 593.245 175.188 594.64C177.544 596.032 177.521 598.251 175.137 599.596C172.75 600.937 168.908 600.899 166.552 599.505Z" fill="white"/>
<path d="M111.157 563.439C93.687 573.527 65.362 573.523 47.891 563.439C30.42 553.353 30.419 537.001 47.89 526.915C65.36 516.826 93.686 516.826 111.157 526.915C128.626 537.001 128.626 553.354 111.157 563.439Z" fill="#D4ECFF"/>
<path d="M54.234 232.944C54.234 232.944 55.385 256.656 57.19 272.592C58.994 288.529 97.375 260.353 97.375 260.353V242.208L54.234 232.944Z" fill="#6614CF"/>
<path d="M74.678 527.967C75.254 529.408 85.198 541.514 95.142 544.539C99.466 545.854 102.371 546.026 104.277 545.8C106.189 545.574 107.37 543.603 106.725 541.787C105.014 536.973 100.109 526.938 87.647 520.761C70.786 512.4 74.678 527.967 74.678 527.967ZM71.362 532.618C71.362 532.618 75.109 541.407 76.261 548.757C76.966 553.24 74.505 559.064 72.478 562.927C71.221 565.321 68.034 565.863 66.03 564.042C62.78 561.093 58.644 555.971 57.96 548.613C56.807 536.218 57.96 534.056 57.96 534.056L71.362 532.618Z" fill="#173D7A"/>
<path d="M47.407 382.816C47.407 382.816 46.11 398.45 47.407 415.744C48.705 433.038 53.347 513.915 54.212 533.371C54.212 533.371 53.779 539.263 65.183 537.964C76.586 536.667 75.668 530.127 75.668 530.127C75.668 530.127 91.682 529.912 92.187 520.472C92.69 511.035 108.59 407.749 108.59 370.617L47.407 382.816Z" fill="#FDD762"/>
<path d="M114.513 301.98L122.36 314.131L149.331 346.706C149.331 346.706 148.402 349.73 145.045 350.522C142.421 351.139 119.738 329.498 109.942 320.002C108.681 318.78 107.887 317.155 107.698 315.408C107.509 313.662 107.937 311.905 108.908 310.441L114.513 301.98Z" fill="#FFC2B0"/>
<path d="M99.207 252.099C99.207 252.099 111.671 251.776 116.009 269.788C120.349 287.803 123.742 310.357 119.968 312.231C108.641 317.856 101.472 311.273 101.472 311.273L99.207 252.099Z" fill="#3FAE1E"/>
<path d="M102.937 252.864C100.802 251.981 98.4295 251.85 96.21 252.493C85.591 255.544 45.666 267.259 39.085 272.886C31.482 279.384 50.486 315.899 50.212 327.87C49.938 339.842 48.588 353.957 47.53 366.972C46.473 379.986 45.04 387.121 55.686 392.655C66.331 398.186 84.506 398.443 98.113 388.079C111.717 377.71 109.249 370.617 108.683 363.091C108.117 355.567 103.484 323.017 103.884 313.777C103.884 313.777 108.678 310.245 112.229 304.19C115.781 298.13 109.508 287 106.904 279.762C104.3 272.526 108.373 264.248 107.568 258.344C107.153 255.3 105.21 253.813 102.937 252.864Z" fill="#69BC50"/>
<path d="M76.6922 279.143C84.9767 278.082 91.01 271.891 90.1679 265.315C89.3258 258.738 81.9272 254.267 73.6426 255.328C65.358 256.389 59.3248 262.58 60.1669 269.156C61.009 275.733 68.4076 280.204 76.6922 279.143Z" fill="white"/>
<path d="M76.2522 275.747C82.1729 274.989 86.4847 270.564 85.8829 265.864C85.281 261.163 79.9934 257.968 74.0726 258.726C68.1519 259.484 63.8401 263.909 64.4419 268.609C65.0438 273.309 70.3314 276.505 76.2522 275.747Z" fill="#FFC2B0"/>
<path d="M80.01 250.428C80.01 250.428 72.803 244.501 71.385 247.502C69.971 250.506 68.804 263.389 68.804 263.389L83.117 267.234L80.944 254.18C80.944 254.18 83.809 251.75 80.01 250.428Z" fill="#FFC2B0"/>
<path d="M102.378 236.309C101.683 248.092 91.567 257.08 79.786 256.384C68.003 255.686 59.017 245.572 59.713 233.79C60.408 222.007 70.524 213.021 82.305 213.717C94.087 214.413 103.075 224.527 102.378 236.309Z" fill="#FFC2B0"/>
<path d="M70.389 251.236C70.2566 251.945 70.1353 252.656 70.025 253.368C71.463 260.804 82.589 264.057 82.589 264.057L80.945 254.179C80.945 254.179 82.294 253.036 81.912 251.89C77.514 250.504 71.973 249.273 70.389 251.236Z" fill="#EA9C92"/>
<path d="M102.378 236.309C101.683 248.092 91.567 257.08 79.786 256.384C68.003 255.686 59.017 245.572 59.713 233.79C60.408 222.007 70.524 213.021 82.305 213.717C94.087 214.413 103.075 224.527 102.378 236.309ZM28.391 325.511L30.784 382.698L39.144 383.559L44.586 332.077L28.391 325.511Z" fill="#FFC2B0"/>
<path d="M55.867 320.729C55.415 318.739 51.7559 317.099 51.1969 314.504C48.3259 301.183 47.6349 281.539 47.6349 281.539L45.299 308.372C47.994 316.33 50.31 323.637 50.214 327.869C50.052 334.895 49.519 342.664 48.893 350.512L48.894 350.534C48.893 350.535 58.634 332.941 55.867 320.729Z" fill="#3FAE1E"/>
<path d="M40.681 271.713C40.681 271.713 33.996 274.268 30.213 294.803C26.429 315.336 23.6 335.907 30.345 338.558C37.09 341.207 42.725 343.202 44.71 337.708C46.693 332.216 47.922 305.752 48.171 296.233C48.419 286.716 48.783 273.594 40.681 271.713Z" fill="#69BC50"/>
<path d="M147.329 344.327C147.329 344.327 150.951 345.658 153.566 348.51C155.713 350.849 156.889 352.831 157.828 354.232C159.911 357.338 161.667 364.052 160.397 364.888C159.127 365.725 151.864 353.646 150.694 356.454C149.523 359.264 150.704 361.861 149.202 361.904C147.701 361.947 142.482 349.762 138.378 345.985C134.273 342.208 147.329 344.327 147.329 344.327Z" fill="#FFC2B0"/>
<path d="M75.668 530.127C75.668 530.127 77.652 530.101 80.243 529.655L83.38 403.934L75.668 530.127Z" fill="#D8892B"/>
<path d="M63.5671 462.218L59.119 456.413L12.3361 429.326C10.8371 428.457 9.62305 426.13 9.62505 424.13L9.66705 385.828L6.97705 382.317L9.50505 380.853L9.50605 380.855C9.99005 380.545 10.6331 380.552 11.3411 380.961L64.3601 411.657C65.8591 412.525 67.072 414.853 67.071 416.852L67.0261 458.562C67.0251 459.69 66.639 460.474 66.034 460.789L63.5671 462.218Z" fill="#3FAE1E"/>
<path d="M31.215 440.255L27.89 438.332L9.64595 406.64L9.66595 385.828L6.97595 382.317L9.50395 380.853L9.50495 380.855C9.98895 380.545 10.632 380.552 11.34 380.961L64.359 411.657C65.152 412.116 65.861 412.984 66.356 413.995L31.215 440.255Z" fill="#99E482"/>
<path d="M8.16798 383.874L6.97498 382.317L9.50298 380.853L9.50398 380.855C9.98798 380.545 10.631 380.552 11.339 380.961L12.274 381.503L8.16798 383.874Z" fill="#D29FFF"/>
<path d="M64.84 411.997C66.016 412.963 66.93 414.781 67.054 416.463L61.873 419.456L59.391 415.143L64.84 411.997Z" fill="#33771F"/>
<path d="M61.8331 413.12L8.81505 382.424C7.31605 381.557 6.09705 382.474 6.09405 384.476L6.05005 426.188C6.04705 428.191 7.26005 430.515 8.76105 431.383L61.7791 462.079C63.2791 462.949 64.4971 462.03 64.4991 460.028L64.5441 418.316C64.5471 416.317 63.3331 413.989 61.8331 413.12Z" fill="#69BC50"/>
<path d="M50.941 443.038L48.417 441.579V419.886L50.941 421.343V443.038ZM45.042 439.631L42.518 438.174V416.481L45.042 417.939V439.631ZM39.142 436.227L36.618 434.768V413.074L39.142 414.531V436.227Z" fill="white"/>
<path d="M30.8499 382.218C30.8499 382.218 28.6399 395.569 28.9739 399.844C29.3069 404.12 31.5939 411.172 33.3309 411.021C35.0669 410.873 33.3879 393.829 36.4379 395.525C39.4879 397.225 39.8089 400.137 41.1889 399.107C42.5709 398.079 38.7799 383.513 39.7909 377.196C40.8029 370.878 30.8499 382.218 30.8499 382.218Z" fill="#FFC2B0"/>
<path d="M89.253 236.916C99.973 240.722 102.06 238.399 102.163 238.276C102.266 237.624 102.338 236.967 102.378 236.308C102.511 234.009 102.271 231.703 101.667 229.481L73.854 225.725C73.853 225.726 78.245 233.004 89.253 236.916Z" fill="#EA9C92"/>
<path d="M103.148 215.019C100.622 212.854 91.504 202.146 75.172 204.673C64.964 206.253 56.36 213.214 54.452 229.099C53.166 239.801 57.095 250.343 64.33 258.136C64.722 257.952 65.127 257.787 65.49 257.55C69.581 254.857 70.022 253.377 70.021 253.363L70.925 245.256C70.897 244.107 70.036 243.082 68.887 243.011C67.999 242.955 66.92 242.529 65.895 241.187C63.549 238.121 64.63 233.336 69.323 233.156C71.774 233.062 72.723 231.735 73.071 230.491C73.1401 230.235 73.2616 229.996 73.4278 229.789C73.594 229.583 73.8013 229.413 74.0366 229.29C74.2719 229.168 74.53 229.096 74.7947 229.078C75.0593 229.061 75.3247 229.099 75.574 229.189C80.912 231.121 94.064 235.286 102.529 232.884C113.358 229.818 105.675 217.184 103.148 215.019Z" fill="#173D7A"/>
<path d="M90.9699 246.569L97.5069 244.773C97.5069 244.773 94.3859 249.68 89.8299 250.933C85.2729 252.185 84.5649 248.328 84.5649 248.328L90.9699 246.569Z" fill="white"/>
<path d="M41.965 398.693L36.395 395.504L38.486 398.918L41.303 399.958L41.965 398.693Z" fill="#D29FFF"/>
<path d="M164.911 407.81L228.748 371.478C230.011 370.759 230.61 369.791 230.638 368.774L230.668 368.798L230.712 361.672C230.712 361.672 228.471 363.526 227.153 364.614L187.18 341.204C183.928 339.3 178.993 339.064 176.155 340.677L115.138 375.405L110.448 372.657L110.395 379.85L110.423 379.829C110.446 381.06 111.32 382.357 113.07 383.382L153.884 407.285C157.138 409.19 162.074 409.424 164.911 407.81Z" fill="#33771F"/>
<path d="M112.368 369.758L176.205 333.427C179.042 331.812 183.977 332.047 187.23 333.951L228.045 357.853C231.298 359.757 231.633 362.609 228.797 364.224L164.96 400.557C162.125 402.17 157.187 401.936 153.936 400.032L113.122 376.129C109.868 374.225 109.531 371.373 112.368 369.758Z" fill="#69BC50"/>
<path d="M164.96 400.558L228.796 364.225C230.409 363.307 230.961 361.991 230.57 360.672C230.272 361.29 229.749 361.864 228.933 362.33L165.094 398.661C162.257 400.277 157.321 400.039 154.07 398.137L113.256 374.234C111.853 373.414 111.027 372.418 110.73 371.417C109.998 372.944 110.805 374.774 113.12 376.13L153.934 400.033C157.188 401.937 162.124 402.171 164.96 400.558Z" fill="white"/>
<path d="M179.46 360.122C177.097 358.739 177.11 356.518 179.491 355.167C181.869 353.813 185.713 353.837 188.074 355.22C190.435 356.603 190.422 358.824 188.043 360.176C185.665 361.529 181.82 361.505 179.46 360.122ZM166.411 367.547C164.049 366.164 164.063 363.944 166.442 362.592C168.821 361.238 172.664 361.264 175.025 362.645C177.388 364.028 177.375 366.249 174.994 367.601C172.617 368.955 168.772 368.931 166.411 367.547ZM153.363 374.974C151.001 373.591 151.016 371.373 153.393 370.02C155.773 368.666 159.615 368.689 161.977 370.072C164.339 371.455 164.325 373.676 161.945 375.029C159.568 376.381 155.726 376.356 153.363 374.974Z" fill="white"/>
<path d="M524.699 458.736C524.699 464.657 520.545 467.055 515.42 464.096C510.294 461.135 506.14 453.942 506.14 448.023C506.14 442.106 510.294 439.708 515.42 442.666C520.545 445.625 524.699 452.82 524.699 458.736ZM528.568 475.467C528.556 475.375 528.543 475.284 528.528 475.193C528.131 472.699 525.771 470.51 524.215 471.066C521.812 471.921 518.753 471.504 515.419 469.579C512.087 467.654 509.025 464.542 506.621 460.908C505.065 458.556 502.707 458.019 502.309 460.056L502.268 460.284L497.869 488.235L532.969 508.5L528.568 475.467Z" fill="#D3008D"/>
<path d="M524.699 458.736C524.699 464.657 520.545 467.055 515.42 464.096C510.294 461.135 506.14 453.942 506.14 448.023C506.14 442.106 510.294 439.708 515.42 442.666C520.545 445.625 524.699 452.82 524.699 458.736ZM528.568 475.467C528.556 475.375 528.543 475.284 528.528 475.193C528.131 472.699 525.771 470.51 524.215 471.066C521.812 471.921 518.753 471.504 515.419 469.579C512.087 467.654 509.025 464.542 506.621 460.908C505.065 458.556 502.707 458.019 502.309 460.056L502.268 460.284L497.869 488.235L532.969 508.5L528.568 475.467ZM535.454 529.769L492.843 505.165V502.095L535.454 526.696V529.769ZM522.587 535.76L492.843 518.587V515.514L522.587 532.688V535.76ZM518.576 526.733L492.843 511.875V508.804L518.576 523.664V526.733ZM535.454 536.478L522.587 529.051V525.979L535.454 533.407V536.478Z" fill="white"/>
<path d="M535.553 324.534L492.939 299.931V296.859L535.553 321.461V324.534ZM522.686 330.525L492.939 313.351V310.278L522.686 327.454V330.525ZM518.675 321.498L492.939 306.642V303.568L518.675 318.428V321.498ZM535.553 331.242L522.686 323.814V320.743L535.553 328.172V331.242ZM535.553 350.45L492.939 325.848V322.776L535.553 347.38V350.45ZM522.686 356.442L492.939 339.269V336.196L522.686 353.369V356.442ZM518.675 347.414L492.939 332.557V329.487L518.675 344.345V347.414ZM535.553 357.162L522.686 349.731V346.66L535.553 354.09V357.162ZM535.553 376.369L492.939 351.766V348.693L535.553 373.296V376.369ZM522.686 382.361L492.939 365.187V362.113L522.686 379.289V382.361ZM518.675 373.333L492.939 358.478V355.404L518.675 370.263V373.333ZM535.553 383.078L522.686 375.649V372.579L535.553 380.008V383.078Z" fill="#5793CE"/>
<path d="M401.263 449.067L370.865 431.515V428.678L401.263 446.229V449.067ZM420.104 459.944L407.124 452.448V449.612L420.104 457.106V459.944ZM402.31 455.851L389.33 448.355V445.519L402.31 453.013V455.851ZM430.428 472.081L407.124 458.629V455.789L430.428 469.245V472.081ZM446.378 487.472L411.911 467.568V464.734L446.378 484.634V487.472ZM438.674 470.665L425.692 463.171V460.332L438.674 467.828V470.665ZM383.847 445.188L370.865 437.696V434.856L383.847 442.351V445.188ZM406.345 464.357L370.801 443.838V440.998L406.345 461.52V464.357ZM392.66 462.636L371.218 450.253V447.415L392.66 459.796V462.636Z" fill="white"/>
<path d="M708.099 612.247C707.589 612.246 707.094 612.078 706.689 611.769C706.284 611.459 705.991 611.025 705.857 610.534C705.722 610.042 705.753 609.52 705.944 609.047C706.135 608.574 706.476 608.177 706.914 607.917L797 554.681C797.247 554.539 797.452 554.334 797.594 554.086C797.736 553.839 797.809 553.558 797.807 553.273C797.807 552.992 797.733 552.292 797.01 551.86L772.426 537.108C771.908 536.786 771.537 536.272 771.394 535.679C771.251 535.086 771.347 534.46 771.661 533.936C771.975 533.413 772.483 533.034 773.074 532.882C773.664 532.729 774.292 532.815 774.82 533.12L799.403 547.872C800.343 548.428 801.12 549.222 801.656 550.173C802.193 551.125 802.469 552.2 802.459 553.292C802.46 554.384 802.176 555.456 801.633 556.403C801.09 557.35 800.309 558.138 799.366 558.688L709.28 611.925C708.908 612.143 708.5 612.247 708.099 612.247Z" fill="#FDD762"/>
<path d="M725.714 653.028L694.444 634.975L663.173 653.028L694.444 671.083L725.714 653.028Z" fill="#D4ECFF"/>
<path d="M694.444 654.336V633.992L731.8 612.424V632.768L694.444 654.336ZM694.444 633.992L657.083 612.424V632.768L694.444 654.336V633.992Z" fill="#33771F"/>
<path d="M731.8 612.424L694.444 590.855L657.083 612.424L694.444 633.992L731.8 612.424Z" fill="#69BC50"/>
<path d="M392.953 179.052L399.249 199.703L415.364 210.793L403.139 215.775L406.803 236.271L392.953 218.441L379.102 220.278L382.766 204.015L370.54 184.915L386.657 192.434L392.953 179.052ZM444.318 208.455L450.614 229.105L466.729 240.195L454.505 245.18L458.17 265.674L444.318 247.845L430.466 249.68L434.13 233.416L421.906 214.315L438.022 221.835L444.318 208.455ZM363.999 181.393L347.881 170.3L341.589 149.651L340.635 151.669V189.164L341.589 189.039L355.438 206.87L351.774 186.376L363.999 181.393Z" fill="#EDEDED"/>
<path d="M228.045 77.2749L234.342 97.9259L250.458 109.017L238.231 114L241.896 134.495L228.045 116.663L214.194 118.502L217.859 102.237L205.633 83.1389L221.749 90.6559L228.045 77.2749Z" fill="#E8A200"/>
<path d="M198.113 87.4569L205.633 83.1389L217.248 88.5579C217.248 88.5579 217.209 96.3669 217.248 96.5529C217.289 96.7379 212.462 96.9689 212.138 96.9689C211.812 96.9689 198.113 87.4569 198.113 87.4569Z" fill="#F9BF30"/>
<path d="M241.896 134.495L234.375 138.811L230.712 118.317C230.712 118.317 234.358 114.469 234.342 114.469C234.324 114.469 238.442 115.166 238.442 115.166L241.896 134.495Z" fill="#E8A200"/>
<path d="M220.523 81.595L226.821 102.243L242.937 113.335L230.712 118.317L234.375 138.812L220.523 120.981L206.674 122.818L210.339 106.555L198.113 87.457L214.229 94.974L220.523 81.595Z" fill="#FDD762"/>
<path d="M234.375 138.812L230.712 118.318L242.937 113.336L226.822 102.244L220.524 81.5959L214.23 94.9759L198.113 87.4579L199.237 89.2099L214.765 96.4539L220.304 84.6839L225.867 102.941L240.604 113.083L229.457 117.626L232.907 136.922L234.375 138.812Z" fill="white"/>
<path d="M220.523 81.5949L228.045 77.2749L234.342 97.9259L226.821 102.243L220.523 81.5949Z" fill="#E8A200"/>
<path d="M250.458 109.017L242.937 113.335L226.821 102.243L234.342 97.926L250.458 109.017Z" fill="#F9BF30"/>
<path d="M227.195 102.763L226.049 102.101L234.172 97.376L234.342 97.926L234.876 98.295L227.195 102.763Z" fill="white"/>
<path d="M279.41 106.678L285.706 127.328L301.821 138.419L289.596 143.403L293.262 163.897L279.41 146.067L265.559 147.904L269.223 131.639L257 112.541L273.114 120.06L279.41 106.678Z" fill="#E8A200"/>
<path d="M249.479 116.858L257 112.541L268.614 117.958C268.614 117.958 268.573 125.77 268.614 125.954C268.655 126.14 263.825 126.372 263.501 126.372C263.177 126.372 249.479 116.858 249.479 116.858Z" fill="#F9BF30"/>
<path d="M293.262 163.897L285.741 168.214L282.077 147.719C282.077 147.719 285.724 143.872 285.707 143.872C285.692 143.872 289.807 144.566 289.807 144.566L293.262 163.897Z" fill="#E8A200"/>
<path d="M271.891 110.995L278.187 131.646L294.302 142.734L282.076 147.72L285.74 168.215L271.891 150.385L258.039 152.22L261.706 135.957L249.479 116.858L265.596 124.376L271.891 110.995Z" fill="#FDD762"/>
<path d="M285.74 168.215L282.076 147.72L294.302 142.735L278.187 131.646L271.891 110.996L265.596 124.377L249.48 116.859L250.602 118.612L266.131 125.854L271.67 114.087L277.232 132.341L291.972 142.484L280.822 147.028L284.272 166.323L285.74 168.215Z" fill="white"/>
<path d="M271.891 110.995L279.41 106.678L285.706 127.328L278.187 131.646L271.891 110.995Z" fill="#E8A200"/>
<path d="M301.821 138.419L294.302 142.734L278.187 131.646L285.706 127.328L301.821 138.419Z" fill="#F9BF30"/>
<path d="M278.561 132.164L277.416 131.503L285.538 126.776L285.706 127.328L286.24 127.696L278.561 132.164Z" fill="white"/>
<path d="M330.775 136.079L337.071 156.729L353.188 167.82L340.963 172.804L344.627 193.3L330.775 175.469L316.924 177.305L320.59 161.043L308.364 141.941L324.479 149.46L330.775 136.079Z" fill="#E8A200"/>
<path d="M300.846 146.261L308.365 141.942L319.98 147.362C319.98 147.362 319.939 155.171 319.98 155.357C320.02 155.542 315.192 155.775 314.867 155.775C314.542 155.774 300.846 146.261 300.846 146.261Z" fill="#F9BF30"/>
<path d="M344.627 193.3L337.105 197.617L333.443 177.121C333.443 177.121 337.089 173.274 337.072 173.274C337.056 173.274 341.173 173.971 341.173 173.971L344.627 193.3Z" fill="#E8A200"/>
<path d="M323.256 140.398L329.551 161.048L345.666 172.139L333.442 177.121L337.104 197.617L323.256 179.785L309.403 181.624L313.071 165.358L300.846 146.261L316.961 153.777L323.256 140.398Z" fill="#FDD762"/>
<path d="M337.104 197.617L333.442 177.121L345.666 172.139L329.551 161.046L323.256 140.399L316.961 153.78L300.846 146.261L301.967 148.015L317.498 155.257L323.035 143.487L328.597 161.744L343.337 171.887L332.186 176.429L335.636 195.724L337.104 197.617Z" fill="white"/>
<path d="M323.256 140.398L330.775 136.079L337.071 156.729L329.551 161.048L323.256 140.398Z" fill="#E8A200"/>
<path d="M353.188 167.82L345.666 172.139L329.551 161.048L337.071 156.729L353.188 167.82Z" fill="#F9BF30"/>
<path d="M329.926 161.567L328.781 160.904L336.904 156.18L337.071 156.729L337.605 157.099L329.926 161.567Z" fill="white"/>
<path d="M382.14 165.483L388.436 186.133L404.553 197.223L392.328 202.207L395.991 222.701L382.14 204.871L368.291 206.708L371.955 190.444L359.731 171.345L375.847 178.862L382.14 165.483Z" fill="#E8A200"/>
<path d="M352.212 175.661L359.732 171.345L371.344 176.762C371.344 176.762 371.304 184.574 371.344 184.758C371.385 184.944 366.558 185.176 366.232 185.176C365.906 185.176 352.212 175.661 352.212 175.661Z" fill="#F9BF30"/>
<path d="M395.991 222.701L388.473 227.017L384.806 206.525C384.806 206.525 388.452 202.676 388.435 202.676C388.42 202.676 392.537 203.37 392.537 203.37L395.991 222.701Z" fill="#E8A200"/>
<path d="M374.622 169.799L380.916 190.451L397.031 201.54L384.807 206.525L388.474 227.018L374.622 209.188L360.771 211.025L364.436 194.761L352.212 175.661L368.326 183.18L374.622 169.799Z" fill="#FDD762"/>
<path d="M388.474 227.02L384.807 206.526L397.032 201.541L380.917 190.452L374.623 169.8L368.327 183.181L352.213 175.662L353.334 177.416L368.863 184.66L374.4 172.891L379.964 191.146L394.701 201.288L383.551 205.832L387.004 225.128L388.474 227.02Z" fill="white"/>
<path d="M374.622 169.799L382.14 165.483L388.436 186.133L380.916 190.451L374.622 169.799Z" fill="#E8A200"/>
<path d="M404.553 197.223L397.031 201.54L380.916 190.451L388.436 186.133L404.553 197.223Z" fill="#F9BF30"/>
<path d="M381.294 190.967L380.146 190.307L388.269 185.58L388.436 186.133L388.972 186.5L381.294 190.967Z" fill="white"/>
<path d="M433.506 194.885L439.803 215.535L455.918 226.623L443.693 231.609L447.358 252.103L433.506 234.273L419.657 236.109L423.32 219.847L411.096 200.745L427.212 208.264L433.506 194.885Z" fill="#E8A200"/>
<path d="M403.576 205.064L411.096 200.745L422.71 206.166C422.71 206.166 422.669 213.975 422.71 214.162C422.75 214.347 417.923 214.579 417.599 214.579C417.271 214.579 403.576 205.064 403.576 205.064Z" fill="#F9BF30"/>
<path d="M447.358 252.103L439.838 256.421L436.174 235.927C436.174 235.927 439.817 232.078 439.802 232.078C439.784 232.078 443.901 232.775 443.901 232.775L447.358 252.103Z" fill="#E8A200"/>
<path d="M425.987 199.201L432.284 219.851L448.399 230.942L436.175 235.927L439.839 256.421L425.987 238.589L412.137 240.428L415.8 224.162L403.576 205.064L419.691 212.583L425.987 199.201Z" fill="#FDD762"/>
<path d="M439.839 256.421L436.175 235.927L448.4 230.943L432.285 219.852L425.988 199.202L419.692 212.584L403.577 205.065L404.699 206.819L420.228 214.061L425.766 202.291L431.329 220.548L446.066 230.691L434.918 235.233L438.369 254.529L439.839 256.421Z" fill="white"/>
<path d="M425.987 199.201L433.506 194.885L439.803 215.535L432.284 219.851L425.987 199.201Z" fill="#E8A200"/>
<path d="M455.918 226.623L448.399 230.942L432.284 219.851L439.803 215.535L455.918 226.623Z" fill="#F9BF30"/>
<path d="M432.659 220.372L431.512 219.71L439.634 214.983L439.803 215.535L440.338 215.902L432.659 220.372Z" fill="white"/>
</g>
<defs>
<radialGradient id="paint0_radial_841_2" cx="0" cy="0" r="1" gradientUnits="userSpaceOnUse" gradientTransform="translate(545.146 298.945) scale(108.859 108.859)">
<stop stop-color="#01C8EF"/>
<stop offset="0.089" stop-color="#03BEE9"/>
<stop offset="0.239" stop-color="#08A5D7"/>
<stop offset="0.429" stop-color="#107BBB"/>
<stop offset="0.446" stop-color="#1177B8"/>
<stop offset="1" stop-color="#112564"/>
</radialGradient>
<clipPath id="clip0_841_2">
<rect width="802.459" height="733" fill="white"/>
</clipPath>
</defs>
</svg>
