<svg width="2759" height="1629" viewBox="0 0 2759 1629" fill="none" xmlns="http://www.w3.org/2000/svg">
<g clip-path="url(#clip0_838_10)">
<mask id="mask0_838_10" style="mask-type:luminance" maskUnits="userSpaceOnUse" x="0" y="0" width="2759" height="1690">
<path d="M0 0H2758.85V1689.29H0V0Z" fill="white"/>
</mask>
<g mask="url(#mask0_838_10)">
<path d="M0 0H2758.85V1688.27H0V0Z" fill="#EDF0F7"/>
<mask id="mask1_838_10" style="mask-type:luminance" maskUnits="userSpaceOnUse" x="0" y="0" width="2759" height="1689">
<mask id="mask2_838_10" style="mask-type:luminance" maskUnits="userSpaceOnUse" x="0" y="0" width="2759" height="1689">
<mask id="mask3_838_10" style="mask-type:luminance" maskUnits="userSpaceOnUse" x="0" y="0" width="2759" height="1689">
<path d="M0 0H2758.85V1688.27H0V0Z" fill="white"/>
</mask>
<g mask="url(#mask3_838_10)">
<path d="M0 0H2758.85V1688.27H0V0Z" fill="white"/>
</g>
</mask>
<g mask="url(#mask2_838_10)">
<path d="M0 0H2758.85V1688.27H0V0Z" fill="white"/>
</g>
</mask>
<g mask="url(#mask1_838_10)">
<path d="M295.547 1127.74C295.547 1308.44 149.056 1454.93 -31.651 1454.93C-212.353 1454.93 -358.843 1308.44 -358.843 1127.74C-358.843 947.029 -212.353 800.537 -31.651 800.537C149.056 800.537 295.547 947.029 295.547 1127.74Z" fill="url(#paint0_linear_838_10)"/>
</g>
<mask id="mask4_838_10" style="mask-type:luminance" maskUnits="userSpaceOnUse" x="0" y="0" width="2759" height="1689">
<mask id="mask5_838_10" style="mask-type:luminance" maskUnits="userSpaceOnUse" x="0" y="0" width="2759" height="1689">
<mask id="mask6_838_10" style="mask-type:luminance" maskUnits="userSpaceOnUse" x="0" y="0" width="2759" height="1689">
<path d="M0 0H2758.85V1688.27H0V0Z" fill="white"/>
</mask>
<g mask="url(#mask6_838_10)">
<path d="M0 0H2758.85V1688.27H0V0Z" fill="white"/>
</g>
</mask>
<g mask="url(#mask5_838_10)">
<path d="M0 0H2758.85V1688.27H0V0Z" fill="white"/>
</g>
</mask>
<g mask="url(#mask4_838_10)">
<path d="M819.634 520.395C819.634 599.849 755.233 664.254 675.78 664.254C596.327 664.254 531.918 599.849 531.918 520.395C531.918 440.947 596.327 376.539 675.78 376.539C755.231 376.537 819.634 440.945 819.634 520.395Z" fill="url(#paint1_linear_838_10)"/>
</g>
<mask id="mask7_838_10" style="mask-type:luminance" maskUnits="userSpaceOnUse" x="0" y="0" width="2759" height="1689">
<mask id="mask8_838_10" style="mask-type:luminance" maskUnits="userSpaceOnUse" x="0" y="0" width="2759" height="1689">
<mask id="mask9_838_10" style="mask-type:luminance" maskUnits="userSpaceOnUse" x="0" y="0" width="2759" height="1689">
<path d="M0 0H2758.85V1688.27H0V0Z" fill="white"/>
</mask>
<g mask="url(#mask9_838_10)">
<path d="M0 0H2758.85V1688.27H0V0Z" fill="white"/>
</g>
</mask>
<g mask="url(#mask8_838_10)">
<path d="M0 0H2758.85V1688.27H0V0Z" fill="white"/>
</g>
</mask>
<g mask="url(#mask7_838_10)">
<path d="M1026.93 2286.58C1293.32 2286.58 1509.28 2070.63 1509.28 1804.23C1509.28 1537.84 1293.32 1321.88 1026.93 1321.88C760.53 1321.88 544.574 1537.84 544.574 1804.23C544.574 2070.63 760.53 2286.58 1026.93 2286.58Z" fill="url(#paint2_linear_838_10)"/>
</g>
<mask id="mask10_838_10" style="mask-type:luminance" maskUnits="userSpaceOnUse" x="0" y="0" width="2759" height="1690">
<path d="M0 0H2758.85V1689.29H0V0Z" fill="white"/>
</mask>
<g mask="url(#mask10_838_10)">
<path d="M1029.13 259.267C979.525 345.189 979.525 451.041 1029.13 536.964L1506.34 1363.51C1555.95 1449.43 1647.62 1502.35 1746.83 1502.35H2758.85V0H1178.82L1029.13 259.267Z" fill="url(#paint3_linear_838_10)"/>
<mask id="mask11_838_10" style="mask-type:luminance" maskUnits="userSpaceOnUse" x="991" y="0" width="1768" height="1503">
<mask id="mask12_838_10" style="mask-type:luminance" maskUnits="userSpaceOnUse" x="991" y="0" width="1768" height="1503">
<mask id="mask13_838_10" style="mask-type:luminance" maskUnits="userSpaceOnUse" x="991" y="0" width="1768" height="1503">
<path d="M1029.13 259.267C979.525 345.189 979.525 451.041 1029.13 536.964L1506.34 1363.51C1555.95 1449.43 1647.62 1502.35 1746.83 1502.35H2758.85V0H1178.82L1029.13 259.267Z" fill="white"/>
</mask>
<g mask="url(#mask13_838_10)">
<path d="M1029.13 259.267C979.525 345.189 979.525 451.041 1029.13 536.964L1506.34 1363.51C1555.95 1449.43 1647.62 1502.35 1746.83 1502.35H2758.85V0H1178.82L1029.13 259.267Z" fill="white"/>
</g>
</mask>
<g mask="url(#mask12_838_10)">
<path d="M1029.13 259.267C979.525 345.189 979.525 451.041 1029.13 536.964L1506.34 1363.51C1555.95 1449.43 1647.62 1502.35 1746.83 1502.35H2758.85V0H1178.82L1029.13 259.267Z" fill="white"/>
</g>
</mask>
<g mask="url(#mask11_838_10)">
<path d="M2637.53 487.088C2637.53 705.713 2460.3 882.945 2241.68 882.945C2023.05 882.945 1845.82 705.713 1845.82 487.088C1845.82 268.463 2023.05 91.2329 2241.68 91.2329C2460.3 91.2319 2637.53 268.463 2637.53 487.088Z" fill="url(#paint4_linear_838_10)"/>
</g>
<mask id="mask14_838_10" style="mask-type:luminance" maskUnits="userSpaceOnUse" x="991" y="0" width="1768" height="1503">
<mask id="mask15_838_10" style="mask-type:luminance" maskUnits="userSpaceOnUse" x="991" y="0" width="1768" height="1503">
<mask id="mask16_838_10" style="mask-type:luminance" maskUnits="userSpaceOnUse" x="991" y="0" width="1768" height="1503">
<path d="M1029.13 259.267C979.525 345.189 979.525 451.041 1029.13 536.964L1506.34 1363.51C1555.95 1449.43 1647.62 1502.35 1746.83 1502.35H2758.85V0H1178.82L1029.13 259.267Z" fill="white"/>
</mask>
<g mask="url(#mask16_838_10)">
<path d="M1029.13 259.267C979.525 345.189 979.525 451.041 1029.13 536.964L1506.34 1363.51C1555.95 1449.43 1647.62 1502.35 1746.83 1502.35H2758.85V0H1178.82L1029.13 259.267Z" fill="white"/>
</g>
</mask>
<g mask="url(#mask15_838_10)">
<path d="M1029.13 259.267C979.525 345.189 979.525 451.041 1029.13 536.964L1506.34 1363.51C1555.95 1449.43 1647.62 1502.35 1746.83 1502.35H2758.85V0H1178.82L1029.13 259.267Z" fill="white"/>
</g>
</mask>
<g mask="url(#mask14_838_10)">
<path d="M1625.84 125.693C1625.84 312.449 1474.44 463.848 1287.68 463.848C1100.93 463.848 949.53 312.45 949.53 125.693C949.53 -61.0639 1100.93 -212.464 1287.68 -212.464C1474.44 -212.464 1625.84 -61.0629 1625.84 125.693Z" fill="url(#paint5_linear_838_10)"/>
</g>
<mask id="mask17_838_10" style="mask-type:luminance" maskUnits="userSpaceOnUse" x="991" y="0" width="1768" height="1503">
<mask id="mask18_838_10" style="mask-type:luminance" maskUnits="userSpaceOnUse" x="991" y="0" width="1768" height="1503">
<mask id="mask19_838_10" style="mask-type:luminance" maskUnits="userSpaceOnUse" x="991" y="0" width="1768" height="1503">
<path d="M1029.13 259.267C979.525 345.189 979.525 451.041 1029.13 536.964L1506.34 1363.51C1555.95 1449.43 1647.62 1502.35 1746.83 1502.35H2758.85V0H1178.82L1029.13 259.267Z" fill="white"/>
</mask>
<g mask="url(#mask19_838_10)">
<path d="M1029.13 259.267C979.525 345.189 979.525 451.041 1029.13 536.964L1506.34 1363.51C1555.95 1449.43 1647.62 1502.35 1746.83 1502.35H2758.85V0H1178.82L1029.13 259.267Z" fill="white"/>
</g>
</mask>
<g mask="url(#mask18_838_10)">
<path d="M1029.13 259.267C979.525 345.189 979.525 451.041 1029.13 536.964L1506.34 1363.51C1555.95 1449.43 1647.62 1502.35 1746.83 1502.35H2758.85V0H1178.82L1029.13 259.267Z" fill="white"/>
</g>
</mask>
<g mask="url(#mask17_838_10)">
<path d="M1713.52 1239.64C1868.96 1239.64 1994.96 1113.63 1994.96 958.189C1994.96 802.749 1868.96 676.74 1713.52 676.74C1558.08 676.74 1432.07 802.749 1432.07 958.189C1432.07 1113.63 1558.08 1239.64 1713.52 1239.64Z" fill="url(#paint6_linear_838_10)"/>
</g>
</g>
</g>
</g>
<defs>
<linearGradient id="paint0_linear_838_10" x1="-263.01" y1="1359.1" x2="199.714" y2="896.371" gradientUnits="userSpaceOnUse">
<stop offset="0.313" stop-color="#E9E9FF" stop-opacity="0"/>
<stop offset="0.828" stop-color="#E4E4FF" stop-opacity="0.75"/>
<stop offset="1" stop-color="#E1E1FF"/>
</linearGradient>
<linearGradient id="paint1_linear_838_10" x1="574.054" y1="622.12" x2="777.501" y2="418.674" gradientUnits="userSpaceOnUse">
<stop stop-color="#E9E9FF" stop-opacity="0"/>
<stop offset="0.75" stop-color="#E4E4FF" stop-opacity="0.75"/>
<stop offset="1" stop-color="#E1E1FF"/>
</linearGradient>
<linearGradient id="paint2_linear_838_10" x1="685.852" y1="1463.16" x2="1368" y2="2145.31" gradientUnits="userSpaceOnUse">
<stop stop-color="#E1E1FF"/>
<stop offset="0.25" stop-color="#E4E4FF" stop-opacity="0.75"/>
<stop offset="1" stop-color="#E9E9FF" stop-opacity="0"/>
</linearGradient>
<linearGradient id="paint3_linear_838_10" x1="1311.48" y1="-132.662" x2="2852.67" y2="1408.53" gradientUnits="userSpaceOnUse">
<stop offset="0.387" stop-color="#58B43D"/>
<stop offset="0.944" stop-color="#69BC50"/>
</linearGradient>
<linearGradient id="paint4_linear_838_10" x1="1961.76" y1="207.177" x2="2521.59" y2="767.001" gradientUnits="userSpaceOnUse">
<stop stop-color="#6BBB53"/>
<stop offset="0.717" stop-color="#6BBB53" stop-opacity="0"/>
</linearGradient>
<linearGradient id="paint5_linear_838_10" x1="1048.57" y1="-113.419" x2="1526.8" y2="364.803" gradientUnits="userSpaceOnUse">
<stop offset="0.283" stop-color="#6BBB53" stop-opacity="0"/>
<stop offset="1" stop-color="#6BBB53"/>
</linearGradient>
<linearGradient id="paint6_linear_838_10" x1="1514.5" y1="759.174" x2="1912.53" y2="1157.2" gradientUnits="userSpaceOnUse">
<stop stop-color="#6BBB53"/>
<stop offset="0.717" stop-color="#69BC50" stop-opacity="0"/>
</linearGradient>
<clipPath id="clip0_838_10">
<rect width="2758.85" height="1628.43" fill="white"/>
</clipPath>
</defs>
</svg>
